# xmcd
#
# Track frame offsets:
#	150
#	12674
#	24728
#	36593
#	50826
#	62660
#	75663
#	87675
#	100437
#	112287
#	126793
#	139845
#	153886
#	168491
#	183390
#	196436
#	209934
#	223111
#	235881
#	248106
#	259498
#	272827
#	285370
#	298381
#	310347
#	322427
#
# Disc length: 4461 seconds
#
# Revision: 0
# Processed by: cddbd v1.5.1PL0 Copyright (c) Steve Scherf et al.
# Submitted via: dBpowerAMP V4.0
#
DISCID=b5116b1a
DTITLE=Ruth Brown - Teardrops From My Eyes
DYEAR=1900
DGENRE=Swing
TTITLE0=It's Raining
TTITLE1=So Long
TTITLE2=I'll Get Along Somehow
TTITLE3=(I'll Come Back) Someday
TTITLE4=Sentimental Journey
TTITLE5=Teardrops from My Eyes
TTITLE6=R.B. Blues
TTITLE7=I Know
TTITLE8=I'll Wait For You
TTITLE9=Standing in the Corner
TTITLE10=Shine On (Big Bright Moon)
TTITLE11=Be Anything (But Be Mine)
TTITLE12=5-10-15 Hours
TTITLE13=Have a Good Time
TTITLE14=Daddy Daddy
TTITLE15=Three Letters
TTITLE16=Mama, He Treats Your Daughter Mean
TTITLE17=Mend Your Ways
TTITLE18=I Would If I Could
TTITLE19=Wild Wild Young Men
TTITLE20=The Tears Keep Tumbling Down
TTITLE21=Ever Since My Baby's Been Gone
TTITLE22=If I had Any Sense
TTITLE23=If You Don't Want Me
TTITLE24=Too Many Men
TTITLE25=Hello Little Boy
EXTD=
EXTT0=
EXTT1=
EXTT2=
EXTT3=
EXTT4=
EXTT5=
EXTT6=
EXTT7=
EXTT8=
EXTT9=
EXTT10=
EXTT11=
EXTT12=
EXTT13=
EXTT14=
EXTT15=
EXTT16=
EXTT17=
EXTT18=
EXTT19=
EXTT20=
EXTT21=
EXTT22=
EXTT23=
EXTT24=
EXTT25=
PLAYORDER=
